# MagicaVoxel @ Ephtracy

# group
o 

# material
mtllib Coin.mtl
usemtl palette

# normals
vn -1 0 0
vn 1 0 0
vn 0 0 1
vn 0 0 -1
vn 0 -1 0
vn 0 1 0

# texcoords
vt 0.00585938 0.5
vt 0.0136719 0.5
vt 0.0175781 0.5
vt 0.0214844 0.5

# verts
v -0.5 0 0.2
v -0.5 0 -0.2
v -0.5 0.1 0.2
v -0.5 0.1 -0.2
v -0.4 0 0.3
v -0.4 0 0.2
v -0.4 0 -0.2
v -0.4 0 -0.3
v -0.4 0.1 0.3
v -0.4 0.1 0.2
v -0.4 0.1 -0.2
v -0.4 0.1 -0.3
v -0.3 0 0.4
v -0.3 0 0.3
v -0.3 0 -0.3
v -0.3 0 -0.4
v -0.3 0.1 0.4
v -0.3 0.1 0.3
v -0.3 0.1 -0.3
v -0.3 0.1 -0.4
v -0.2 0 0.5
v -0.2 0 0.4
v -0.2 0 -0.4
v -0.2 0 -0.5
v -0.2 0.1 0.5
v -0.2 0.1 0.4
v -0.2 0.1 -0.4
v -0.2 0.1 -0.5
v 0.2 0 0.5
v 0.2 0 0.4
v 0.2 0 -0.4
v 0.2 0 -0.5
v 0.2 0.1 0.5
v 0.2 0.1 0.4
v 0.2 0.1 -0.4
v 0.2 0.1 -0.5
v 0.3 0 0.4
v 0.3 0 0.3
v 0.3 0 -0.3
v 0.3 0 -0.4
v 0.3 0.1 0.4
v 0.3 0.1 0.3
v 0.3 0.1 -0.3
v 0.3 0.1 -0.4
v 0.4 0 0.3
v 0.4 0 0.2
v 0.4 0 -0.2
v 0.4 0 -0.3
v 0.4 0.1 0.3
v 0.4 0.1 0.2
v 0.4 0.1 -0.2
v 0.4 0.1 -0.3
v 0.5 0 0.2
v 0.5 0 -0.2
v 0.5 0.1 0.2
v 0.5 0.1 -0.2
v -0.2 0 0.5
v -0.2 0.1 0.5
v 0.2 0 0.5
v 0.2 0.1 0.5
v -0.3 0 0.4
v -0.3 0.1 0.4
v -0.2 0 0.4
v -0.2 0.1 0.4
v 0.2 0 0.4
v 0.2 0.1 0.4
v 0.3 0 0.4
v 0.3 0.1 0.4
v -0.4 0 0.3
v -0.4 0.1 0.3
v -0.3 0 0.3
v -0.3 0.1 0.3
v 0.3 0 0.3
v 0.3 0.1 0.3
v 0.4 0 0.3
v 0.4 0.1 0.3
v -0.5 0 0.2
v -0.5 0.1 0.2
v -0.4 0 0.2
v -0.4 0.1 0.2
v 0.4 0 0.2
v 0.4 0.1 0.2
v 0.5 0 0.2
v 0.5 0.1 0.2
v -0.5 0 -0.2
v -0.5 0.1 -0.2
v -0.4 0 -0.2
v -0.4 0.1 -0.2
v 0.4 0 -0.2
v 0.4 0.1 -0.2
v 0.5 0 -0.2
v 0.5 0.1 -0.2
v -0.4 0 -0.3
v -0.4 0.1 -0.3
v -0.3 0 -0.3
v -0.3 0.1 -0.3
v 0.3 0 -0.3
v 0.3 0.1 -0.3
v 0.4 0 -0.3
v 0.4 0.1 -0.3
v -0.3 0 -0.4
v -0.3 0.1 -0.4
v -0.2 0 -0.4
v -0.2 0.1 -0.4
v 0.2 0 -0.4
v 0.2 0.1 -0.4
v 0.3 0 -0.4
v 0.3 0.1 -0.4
v -0.2 0 -0.5
v -0.2 0.1 -0.5
v 0.2 0 -0.5
v 0.2 0.1 -0.5
v -0.2 0 0.5
v 0.2 0 0.5
v -0.3 0 0.4
v -0.2 0 0.4
v 0.2 0 0.4
v 0.3 0 0.4
v -0.4 0 0.3
v -0.3 0 0.3
v -0.2 0 0.3
v 0.2 0 0.3
v 0.3 0 0.3
v 0.4 0 0.3
v -0.5 0 0.2
v -0.4 0 0.2
v -0.3 0 0.2
v -0.2 0 0.2
v 0.2 0 0.2
v 0.3 0 0.2
v 0.4 0 0.2
v 0.5 0 0.2
v 0 0 0.1
v 0.1 0 0.1
v -0.4 0 -0.1
v -0.3 0 -0.1
v -0.2 0 -0.1
v -0.1 0 -0.1
v 0.1 0 -0.1
v 0.2 0 -0.1
v 0.3 0 -0.1
v -0.5 0 -0.2
v -0.4 0 -0.2
v -0.3 0 -0.2
v -0.2 0 -0.2
v -0.1 0 -0.2
v 0 0 -0.2
v 0.2 0 -0.2
v 0.3 0 -0.2
v 0.4 0 -0.2
v 0.5 0 -0.2
v -0.4 0 -0.3
v -0.3 0 -0.3
v -0.2 0 -0.3
v 0.1 0 -0.3
v 0.2 0 -0.3
v 0.3 0 -0.3
v 0.4 0 -0.3
v -0.3 0 -0.4
v -0.2 0 -0.4
v 0.1 0 -0.4
v 0.2 0 -0.4
v 0.3 0 -0.4
v -0.2 0 -0.5
v 0.2 0 -0.5
v -0.2 0.1 0.5
v 0.2 0.1 0.5
v -0.3 0.1 0.4
v -0.2 0.1 0.4
v 0.2 0.1 0.4
v 0.3 0.1 0.4
v -0.4 0.1 0.3
v -0.3 0.1 0.3
v -0.2 0.1 0.3
v 0.2 0.1 0.3
v 0.3 0.1 0.3
v 0.4 0.1 0.3
v -0.5 0.1 0.2
v -0.4 0.1 0.2
v -0.3 0.1 0.2
v -0.2 0.1 0.2
v 0.2 0.1 0.2
v 0.3 0.1 0.2
v 0.4 0.1 0.2
v 0.5 0.1 0.2
v 0 0.1 0.1
v 0.1 0.1 0.1
v -0.4 0.1 -0.1
v -0.3 0.1 -0.1
v -0.2 0.1 -0.1
v -0.1 0.1 -0.1
v 0.1 0.1 -0.1
v 0.2 0.1 -0.1
v 0.3 0.1 -0.1
v -0.5 0.1 -0.2
v -0.4 0.1 -0.2
v -0.3 0.1 -0.2
v -0.2 0.1 -0.2
v -0.1 0.1 -0.2
v 0 0.1 -0.2
v 0.2 0.1 -0.2
v 0.3 0.1 -0.2
v 0.4 0.1 -0.2
v 0.5 0.1 -0.2
v -0.4 0.1 -0.3
v -0.3 0.1 -0.3
v -0.2 0.1 -0.3
v 0.1 0.1 -0.3
v 0.2 0.1 -0.3
v 0.3 0.1 -0.3
v 0.4 0.1 -0.3
v -0.3 0.1 -0.4
v -0.2 0.1 -0.4
v 0.1 0.1 -0.4
v 0.2 0.1 -0.4
v 0.3 0.1 -0.4
v -0.2 0.1 -0.5
v 0.2 0.1 -0.5

# faces
f 3/3/1 2/3/1 1/3/1
f 4/3/1 2/3/1 3/3/1
f 9/3/1 6/3/1 5/3/1
f 10/3/1 6/3/1 9/3/1
f 11/3/1 8/3/1 7/3/1
f 12/3/1 8/3/1 11/3/1
f 17/3/1 14/3/1 13/3/1
f 18/3/1 14/3/1 17/3/1
f 19/3/1 16/3/1 15/3/1
f 20/3/1 16/3/1 19/3/1
f 25/3/1 22/3/1 21/3/1
f 26/3/1 22/3/1 25/3/1
f 27/3/1 24/3/1 23/3/1
f 28/3/1 24/3/1 27/3/1
f 29/3/2 30/3/2 33/3/2
f 33/3/2 30/3/2 34/3/2
f 31/3/2 32/3/2 35/3/2
f 35/3/2 32/3/2 36/3/2
f 37/3/2 38/3/2 41/3/2
f 41/3/2 38/3/2 42/3/2
f 39/3/2 40/3/2 43/3/2
f 43/3/2 40/3/2 44/3/2
f 45/3/2 46/3/2 49/3/2
f 49/3/2 46/3/2 50/3/2
f 47/3/2 48/3/2 51/3/2
f 51/3/2 48/3/2 52/3/2
f 53/3/2 54/3/2 55/3/2
f 55/3/2 54/3/2 56/3/2
f 59/3/3 58/3/3 57/3/3
f 60/3/3 58/3/3 59/3/3
f 63/3/3 62/3/3 61/3/3
f 64/3/3 62/3/3 63/3/3
f 67/3/3 66/3/3 65/3/3
f 68/3/3 66/3/3 67/3/3
f 71/3/3 70/3/3 69/3/3
f 72/3/3 70/3/3 71/3/3
f 75/3/3 74/3/3 73/3/3
f 76/3/3 74/3/3 75/3/3
f 79/3/3 78/3/3 77/3/3
f 80/3/3 78/3/3 79/3/3
f 83/3/3 82/3/3 81/3/3
f 84/3/3 82/3/3 83/3/3
f 85/3/4 86/3/4 87/3/4
f 87/3/4 86/3/4 88/3/4
f 89/3/4 90/3/4 91/3/4
f 91/3/4 90/3/4 92/3/4
f 93/3/4 94/3/4 95/3/4
f 95/3/4 94/3/4 96/3/4
f 97/3/4 98/3/4 99/3/4
f 99/3/4 98/3/4 100/3/4
f 101/3/4 102/3/4 103/3/4
f 103/3/4 102/3/4 104/3/4
f 105/3/4 106/3/4 107/3/4
f 107/3/4 106/3/4 108/3/4
f 109/3/4 110/3/4 111/3/4
f 111/3/4 110/3/4 112/3/4
f 116/3/5 114/3/5 113/3/5
f 117/3/5 114/3/5 116/3/5
f 120/3/5 116/3/5 115/3/5
f 121/4/5 117/4/5 116/4/5
f 121/3/5 116/3/5 120/3/5
f 122/3/5 118/3/5 117/3/5
f 122/4/5 117/4/5 121/4/5
f 123/3/5 118/3/5 122/3/5
f 126/3/5 120/3/5 119/3/5
f 127/4/5 121/4/5 120/4/5
f 127/3/5 120/3/5 126/3/5
f 128/2/5 122/2/5 121/2/5
f 128/4/5 121/4/5 127/4/5
f 129/4/5 123/4/5 122/4/5
f 129/2/5 122/2/5 128/2/5
f 130/3/5 124/3/5 123/3/5
f 130/4/5 123/4/5 129/4/5
f 131/3/5 124/3/5 130/3/5
f 133/4/5 129/4/5 128/4/5
f 134/4/5 129/4/5 133/4/5
f 135/3/5 126/3/5 125/3/5
f 135/4/5 127/4/5 126/4/5
f 136/2/5 128/2/5 127/2/5
f 136/4/5 127/4/5 135/4/5
f 137/4/5 133/4/5 128/4/5
f 137/2/5 128/2/5 136/2/5
f 138/4/5 133/4/5 137/4/5
f 139/4/5 129/4/5 134/4/5
f 139/2/5 134/2/5 133/2/5
f 140/2/5 130/2/5 129/2/5
f 140/4/5 129/4/5 139/4/5
f 141/4/5 131/4/5 130/4/5
f 141/2/5 130/2/5 140/2/5
f 142/3/5 135/3/5 125/3/5
f 143/1/5 136/1/5 135/1/5
f 143/3/5 135/3/5 142/3/5
f 144/4/5 137/4/5 136/4/5
f 144/1/5 136/1/5 143/1/5
f 145/2/5 138/2/5 137/2/5
f 145/4/5 137/4/5 144/4/5
f 146/4/5 133/4/5 138/4/5
f 146/2/5 138/2/5 145/2/5
f 147/2/5 139/2/5 133/2/5
f 147/4/5 133/4/5 146/4/5
f 147/2/5 140/2/5 139/2/5
f 148/4/5 141/4/5 140/4/5
f 148/2/5 140/2/5 147/2/5
f 149/4/5 131/4/5 141/4/5
f 149/4/5 141/4/5 148/4/5
f 150/3/5 132/3/5 131/3/5
f 150/4/5 131/4/5 149/4/5
f 151/3/5 132/3/5 150/3/5
f 152/3/5 144/3/5 143/3/5
f 153/1/5 145/1/5 144/1/5
f 153/3/5 144/3/5 152/3/5
f 154/4/5 149/4/5 148/4/5
f 154/1/5 145/1/5 153/1/5
f 154/4/5 148/4/5 147/4/5
f 154/4/5 146/4/5 145/4/5
f 154/4/5 147/4/5 146/4/5
f 155/4/5 149/4/5 154/4/5
f 156/4/5 149/4/5 155/4/5
f 157/3/5 150/3/5 149/3/5
f 157/4/5 149/4/5 156/4/5
f 158/3/5 150/3/5 157/3/5
f 159/3/5 154/3/5 153/3/5
f 160/1/5 155/1/5 154/1/5
f 160/3/5 154/3/5 159/3/5
f 161/4/5 156/4/5 155/4/5
f 161/1/5 155/1/5 160/1/5
f 162/3/5 157/3/5 156/3/5
f 162/4/5 156/4/5 161/4/5
f 163/3/5 157/3/5 162/3/5
f 164/3/5 161/3/5 160/3/5
f 164/3/5 162/3/5 161/3/5
f 165/3/5 162/3/5 164/3/5
f 166/3/6 167/3/6 169/3/6
f 169/3/6 167/3/6 170/3/6
f 168/3/6 169/3/6 173/3/6
f 169/4/6 170/4/6 174/4/6
f 173/3/6 169/3/6 174/3/6
f 170/3/6 171/3/6 175/3/6
f 174/4/6 170/4/6 175/4/6
f 175/3/6 171/3/6 176/3/6
f 172/3/6 173/3/6 179/3/6
f 173/4/6 174/4/6 180/4/6
f 179/3/6 173/3/6 180/3/6
f 174/2/6 175/2/6 181/2/6
f 180/4/6 174/4/6 181/4/6
f 175/4/6 176/4/6 182/4/6
f 181/2/6 175/2/6 182/2/6
f 176/3/6 177/3/6 183/3/6
f 182/4/6 176/4/6 183/4/6
f 183/3/6 177/3/6 184/3/6
f 181/4/6 182/4/6 186/4/6
f 186/4/6 182/4/6 187/4/6
f 178/3/6 179/3/6 188/3/6
f 179/4/6 180/4/6 188/4/6
f 180/2/6 181/2/6 189/2/6
f 188/4/6 180/4/6 189/4/6
f 181/4/6 186/4/6 190/4/6
f 189/2/6 181/2/6 190/2/6
f 190/4/6 186/4/6 191/4/6
f 187/4/6 182/4/6 192/4/6
f 186/2/6 187/2/6 192/2/6
f 182/2/6 183/2/6 193/2/6
f 192/4/6 182/4/6 193/4/6
f 183/4/6 184/4/6 194/4/6
f 193/2/6 183/2/6 194/2/6
f 178/3/6 188/3/6 195/3/6
f 188/1/6 189/1/6 196/1/6
f 195/3/6 188/3/6 196/3/6
f 189/4/6 190/4/6 197/4/6
f 196/1/6 189/1/6 197/1/6
f 190/2/6 191/2/6 198/2/6
f 197/4/6 190/4/6 198/4/6
f 191/4/6 186/4/6 199/4/6
f 198/2/6 191/2/6 199/2/6
f 186/2/6 192/2/6 200/2/6
f 199/4/6 186/4/6 200/4/6
f 192/2/6 193/2/6 200/2/6
f 193/4/6 194/4/6 201/4/6
f 200/2/6 193/2/6 201/2/6
f 194/4/6 184/4/6 202/4/6
f 201/4/6 194/4/6 202/4/6
f 184/3/6 185/3/6 203/3/6
f 202/4/6 184/4/6 203/4/6
f 203/3/6 185/3/6 204/3/6
f 196/3/6 197/3/6 205/3/6
f 197/1/6 198/1/6 206/1/6
f 205/3/6 197/3/6 206/3/6
f 201/4/6 202/4/6 207/4/6
f 206/1/6 198/1/6 207/1/6
f 200/4/6 201/4/6 207/4/6
f 198/4/6 199/4/6 207/4/6
f 199/4/6 200/4/6 207/4/6
f 207/4/6 202/4/6 208/4/6
f 208/4/6 202/4/6 209/4/6
f 202/3/6 203/3/6 210/3/6
f 209/4/6 202/4/6 210/4/6
f 210/3/6 203/3/6 211/3/6
f 206/3/6 207/3/6 212/3/6
f 207/1/6 208/1/6 213/1/6
f 212/3/6 207/3/6 213/3/6
f 208/4/6 209/4/6 214/4/6
f 213/1/6 208/1/6 214/1/6
f 209/3/6 210/3/6 215/3/6
f 214/4/6 209/4/6 215/4/6
f 215/3/6 210/3/6 216/3/6
f 213/3/6 214/3/6 217/3/6
f 214/3/6 215/3/6 217/3/6
f 217/3/6 215/3/6 218/3/6
