# MagicaVoxel @ Ephtracy

# group
o 

# material
mtllib Glider.mtl
usemtl palette

# normals
vn -1 0 0
vn 1 0 0
vn 0 0 1
vn 0 0 -1
vn 0 -1 0
vn 0 1 0

# texcoords
vt 0.533203 0.5
vt 0.841797 0.5
vt 0.958984 0.5

# verts
v -1 0 -0.8
v -1 0 -1.1
v -1 0.1 -0.8
v -1 0.1 -1.1
v -0.9 0 -0.6
v -0.9 0 -0.8
v -0.9 0.1 -0.6
v -0.9 0.1 -0.8
v -0.8 0 -0.4
v -0.8 0 -0.6
v -0.8 0.1 -0.4
v -0.8 0.1 -0.6
v -0.7 0 -0.2
v -0.7 0 -0.4
v -0.7 0.1 -0.2
v -0.7 0.1 -0.4
v -0.6 0 0
v -0.6 0 -0.2
v -0.6 0.1 0
v -0.6 0.1 -0.2
v -0.5 0 0.2
v -0.5 0 0
v -0.5 0.1 0.2
v -0.5 0.1 0
v -0.4 0 0.4
v -0.4 0 0.2
v -0.4 0.1 0.4
v -0.4 0.1 0.2
v -0.3 0 0.6
v -0.3 0 0.4
v -0.3 0.1 0.6
v -0.3 0.1 0.4
v -0.2 0 0.8
v -0.2 0 0.6
v -0.2 0.1 0.8
v -0.2 0.1 0.6
v -0.1 0 1
v -0.1 0 0.8
v -0.1 0.1 1
v -0.1 0.1 0.8
v 0.1 0 1
v 0.1 0 0.8
v 0.1 0.1 1
v 0.1 0.1 0.8
v 0.2 0 0.8
v 0.2 0 0.6
v 0.2 0.1 0.8
v 0.2 0.1 0.6
v 0.3 0 0.6
v 0.3 0 0.4
v 0.3 0.1 0.6
v 0.3 0.1 0.4
v 0.4 0 0.4
v 0.4 0 0.2
v 0.4 0.1 0.4
v 0.4 0.1 0.2
v 0.5 0 0.2
v 0.5 0 0
v 0.5 0.1 0.2
v 0.5 0.1 0
v 0.6 0 0
v 0.6 0 -0.2
v 0.6 0.1 0
v 0.6 0.1 -0.2
v 0.7 0 -0.2
v 0.7 0 -0.4
v 0.7 0.1 -0.2
v 0.7 0.1 -0.4
v 0.8 0 -0.4
v 0.8 0 -0.6
v 0.8 0.1 -0.4
v 0.8 0.1 -0.6
v 0.9 0 -0.6
v 0.9 0 -0.8
v 0.9 0.1 -0.6
v 0.9 0.1 -0.8
v 1 0 -0.8
v 1 0 -1.1
v 1 0.1 -0.8
v 1 0.1 -1.1
v -0.1 0 1
v -0.1 0.1 1
v 0.1 0 1
v 0.1 0.1 1
v -0.2 0 0.8
v -0.2 0.1 0.8
v -0.1 0 0.8
v -0.1 0.1 0.8
v 0.1 0 0.8
v 0.1 0.1 0.8
v 0.2 0 0.8
v 0.2 0.1 0.8
v -0.3 0 0.6
v -0.3 0.1 0.6
v -0.2 0 0.6
v -0.2 0.1 0.6
v 0.2 0 0.6
v 0.2 0.1 0.6
v 0.3 0 0.6
v 0.3 0.1 0.6
v -0.4 0 0.4
v -0.4 0.1 0.4
v -0.3 0 0.4
v -0.3 0.1 0.4
v 0.3 0 0.4
v 0.3 0.1 0.4
v 0.4 0 0.4
v 0.4 0.1 0.4
v -0.5 0 0.2
v -0.5 0.1 0.2
v -0.4 0 0.2
v -0.4 0.1 0.2
v 0.4 0 0.2
v 0.4 0.1 0.2
v 0.5 0 0.2
v 0.5 0.1 0.2
v -0.6 0 0
v -0.6 0.1 0
v -0.5 0 0
v -0.5 0.1 0
v 0.5 0 0
v 0.5 0.1 0
v 0.6 0 0
v 0.6 0.1 0
v -0.7 0 -0.2
v -0.7 0.1 -0.2
v -0.6 0 -0.2
v -0.6 0.1 -0.2
v 0.6 0 -0.2
v 0.6 0.1 -0.2
v 0.7 0 -0.2
v 0.7 0.1 -0.2
v -0.8 0 -0.4
v -0.8 0.1 -0.4
v -0.7 0 -0.4
v -0.7 0.1 -0.4
v 0.7 0 -0.4
v 0.7 0.1 -0.4
v 0.8 0 -0.4
v 0.8 0.1 -0.4
v -0.9 0 -0.6
v -0.9 0.1 -0.6
v -0.8 0 -0.6
v -0.8 0.1 -0.6
v 0.8 0 -0.6
v 0.8 0.1 -0.6
v 0.9 0 -0.6
v 0.9 0.1 -0.6
v -1 0 -0.8
v -1 0.1 -0.8
v -0.9 0 -0.8
v -0.9 0.1 -0.8
v 0.9 0 -0.8
v 0.9 0.1 -0.8
v 1 0 -0.8
v 1 0.1 -0.8
v -1 0 -1.1
v -1 0.1 -1.1
v 1 0 -1.1
v 1 0.1 -1.1
v -0.1 0 1
v 0.1 0 1
v -0.2 0 0.8
v -0.1 0 0.8
v 0.1 0 0.8
v 0.2 0 0.8
v -0.3 0 0.6
v -0.2 0 0.6
v -0.1 0 0.6
v 0.1 0 0.6
v 0.2 0 0.6
v 0.3 0 0.6
v -0.4 0 0.4
v -0.3 0 0.4
v -0.2 0 0.4
v -0.1 0 0.4
v 0.1 0 0.4
v 0.2 0 0.4
v 0.3 0 0.4
v 0.4 0 0.4
v -0.5 0 0.2
v -0.4 0 0.2
v -0.3 0 0.2
v 0.3 0 0.2
v 0.4 0 0.2
v 0.5 0 0.2
v -0.3 0 0.1
v -0.2 0 0.1
v -0.1 0 0.1
v 0.1 0 0.1
v 0.2 0 0.1
v 0.3 0 0.1
v -0.6 0 0
v -0.5 0 0
v -0.4 0 0
v 0.4 0 0
v 0.5 0 0
v 0.6 0 0
v -0.4 0 -0.1
v -0.3 0 -0.1
v -0.2 0 -0.1
v -0.1 0 -0.1
v 0.1 0 -0.1
v 0.2 0 -0.1
v 0.3 0 -0.1
v 0.4 0 -0.1
v -0.7 0 -0.2
v -0.6 0 -0.2
v -0.5 0 -0.2
v 0.5 0 -0.2
v 0.6 0 -0.2
v 0.7 0 -0.2
v -0.5 0 -0.3
v -0.4 0 -0.3
v -0.3 0 -0.3
v 0.3 0 -0.3
v 0.4 0 -0.3
v 0.5 0 -0.3
v -0.8 0 -0.4
v -0.7 0 -0.4
v -0.6 0 -0.4
v 0.6 0 -0.4
v 0.7 0 -0.4
v 0.8 0 -0.4
v -0.9 0 -0.6
v -0.8 0 -0.6
v -0.7 0 -0.6
v -0.6 0 -0.6
v -0.5 0 -0.6
v -0.4 0 -0.6
v 0.4 0 -0.6
v 0.5 0 -0.6
v 0.6 0 -0.6
v 0.7 0 -0.6
v 0.8 0 -0.6
v 0.9 0 -0.6
v -0.3 0 -0.7
v -0.2 0 -0.7
v -0.1 0 -0.7
v 0.1 0 -0.7
v 0.2 0 -0.7
v 0.3 0 -0.7
v -1 0 -0.8
v -0.9 0 -0.8
v -0.8 0 -0.8
v -0.7 0 -0.8
v -0.6 0 -0.8
v -0.5 0 -0.8
v 0.5 0 -0.8
v 0.6 0 -0.8
v 0.7 0 -0.8
v 0.8 0 -0.8
v 0.9 0 -0.8
v 1 0 -0.8
v -0.9 0 -1
v -0.7 0 -1
v -0.6 0 -1
v -0.3 0 -1
v -0.2 0 -1
v 0.2 0 -1
v 0.3 0 -1
v 0.6 0 -1
v 0.7 0 -1
v 0.9 0 -1
v -1 0 -1.1
v 1 0 -1.1
v -0.1 0.1 1
v 0.1 0.1 1
v -0.2 0.1 0.8
v -0.1 0.1 0.8
v 0.1 0.1 0.8
v 0.2 0.1 0.8
v -0.3 0.1 0.6
v -0.2 0.1 0.6
v -0.1 0.1 0.6
v 0.1 0.1 0.6
v 0.2 0.1 0.6
v 0.3 0.1 0.6
v -0.4 0.1 0.4
v -0.3 0.1 0.4
v -0.2 0.1 0.4
v -0.1 0.1 0.4
v 0.1 0.1 0.4
v 0.2 0.1 0.4
v 0.3 0.1 0.4
v 0.4 0.1 0.4
v -0.5 0.1 0.2
v -0.4 0.1 0.2
v -0.3 0.1 0.2
v 0.3 0.1 0.2
v 0.4 0.1 0.2
v 0.5 0.1 0.2
v -0.3 0.1 0.1
v -0.2 0.1 0.1
v -0.1 0.1 0.1
v 0.1 0.1 0.1
v 0.2 0.1 0.1
v 0.3 0.1 0.1
v -0.6 0.1 0
v -0.5 0.1 0
v -0.4 0.1 0
v 0.4 0.1 0
v 0.5 0.1 0
v 0.6 0.1 0
v -0.4 0.1 -0.1
v -0.3 0.1 -0.1
v -0.2 0.1 -0.1
v -0.1 0.1 -0.1
v 0.1 0.1 -0.1
v 0.2 0.1 -0.1
v 0.3 0.1 -0.1
v 0.4 0.1 -0.1
v -0.7 0.1 -0.2
v -0.6 0.1 -0.2
v -0.5 0.1 -0.2
v 0.5 0.1 -0.2
v 0.6 0.1 -0.2
v 0.7 0.1 -0.2
v -0.5 0.1 -0.3
v -0.4 0.1 -0.3
v -0.3 0.1 -0.3
v 0.3 0.1 -0.3
v 0.4 0.1 -0.3
v 0.5 0.1 -0.3
v -0.8 0.1 -0.4
v -0.7 0.1 -0.4
v -0.6 0.1 -0.4
v 0.6 0.1 -0.4
v 0.7 0.1 -0.4
v 0.8 0.1 -0.4
v -0.9 0.1 -0.6
v -0.8 0.1 -0.6
v -0.7 0.1 -0.6
v -0.6 0.1 -0.6
v -0.5 0.1 -0.6
v -0.4 0.1 -0.6
v 0.4 0.1 -0.6
v 0.5 0.1 -0.6
v 0.6 0.1 -0.6
v 0.7 0.1 -0.6
v 0.8 0.1 -0.6
v 0.9 0.1 -0.6
v -0.3 0.1 -0.7
v -0.2 0.1 -0.7
v -0.1 0.1 -0.7
v 0.1 0.1 -0.7
v 0.2 0.1 -0.7
v 0.3 0.1 -0.7
v -1 0.1 -0.8
v -0.9 0.1 -0.8
v -0.8 0.1 -0.8
v -0.7 0.1 -0.8
v -0.6 0.1 -0.8
v -0.5 0.1 -0.8
v 0.5 0.1 -0.8
v 0.6 0.1 -0.8
v 0.7 0.1 -0.8
v 0.8 0.1 -0.8
v 0.9 0.1 -0.8
v 1 0.1 -0.8
v -0.9 0.1 -1
v -0.7 0.1 -1
v -0.6 0.1 -1
v -0.3 0.1 -1
v -0.2 0.1 -1
v 0.2 0.1 -1
v 0.3 0.1 -1
v 0.6 0.1 -1
v 0.7 0.1 -1
v 0.9 0.1 -1
v -1 0.1 -1.1
v 1 0.1 -1.1

# faces
f 3/1/1 2/1/1 1/1/1
f 4/1/1 2/1/1 3/1/1
f 7/1/1 6/1/1 5/1/1
f 8/1/1 6/1/1 7/1/1
f 11/1/1 10/1/1 9/1/1
f 12/1/1 10/1/1 11/1/1
f 15/1/1 14/1/1 13/1/1
f 16/1/1 14/1/1 15/1/1
f 19/1/1 18/1/1 17/1/1
f 20/1/1 18/1/1 19/1/1
f 23/1/1 22/1/1 21/1/1
f 24/1/1 22/1/1 23/1/1
f 27/1/1 26/1/1 25/1/1
f 28/1/1 26/1/1 27/1/1
f 31/1/1 30/1/1 29/1/1
f 32/1/1 30/1/1 31/1/1
f 35/1/1 34/1/1 33/1/1
f 36/1/1 34/1/1 35/1/1
f 39/1/1 38/1/1 37/1/1
f 40/1/1 38/1/1 39/1/1
f 41/1/2 42/1/2 43/1/2
f 43/1/2 42/1/2 44/1/2
f 45/1/2 46/1/2 47/1/2
f 47/1/2 46/1/2 48/1/2
f 49/1/2 50/1/2 51/1/2
f 51/1/2 50/1/2 52/1/2
f 53/1/2 54/1/2 55/1/2
f 55/1/2 54/1/2 56/1/2
f 57/1/2 58/1/2 59/1/2
f 59/1/2 58/1/2 60/1/2
f 61/1/2 62/1/2 63/1/2
f 63/1/2 62/1/2 64/1/2
f 65/1/2 66/1/2 67/1/2
f 67/1/2 66/1/2 68/1/2
f 69/1/2 70/1/2 71/1/2
f 71/1/2 70/1/2 72/1/2
f 73/1/2 74/1/2 75/1/2
f 75/1/2 74/1/2 76/1/2
f 77/1/2 78/1/2 79/1/2
f 79/1/2 78/1/2 80/1/2
f 83/1/3 82/1/3 81/1/3
f 84/1/3 82/1/3 83/1/3
f 87/1/3 86/1/3 85/1/3
f 88/1/3 86/1/3 87/1/3
f 91/1/3 90/1/3 89/1/3
f 92/1/3 90/1/3 91/1/3
f 95/1/3 94/1/3 93/1/3
f 96/1/3 94/1/3 95/1/3
f 99/1/3 98/1/3 97/1/3
f 100/1/3 98/1/3 99/1/3
f 103/1/3 102/1/3 101/1/3
f 104/1/3 102/1/3 103/1/3
f 107/1/3 106/1/3 105/1/3
f 108/1/3 106/1/3 107/1/3
f 111/1/3 110/1/3 109/1/3
f 112/1/3 110/1/3 111/1/3
f 115/1/3 114/1/3 113/1/3
f 116/1/3 114/1/3 115/1/3
f 119/1/3 118/1/3 117/1/3
f 120/1/3 118/1/3 119/1/3
f 123/1/3 122/1/3 121/1/3
f 124/1/3 122/1/3 123/1/3
f 127/1/3 126/1/3 125/1/3
f 128/1/3 126/1/3 127/1/3
f 131/1/3 130/1/3 129/1/3
f 132/1/3 130/1/3 131/1/3
f 135/1/3 134/1/3 133/1/3
f 136/1/3 134/1/3 135/1/3
f 139/1/3 138/1/3 137/1/3
f 140/1/3 138/1/3 139/1/3
f 143/1/3 142/1/3 141/1/3
f 144/1/3 142/1/3 143/1/3
f 147/1/3 146/1/3 145/1/3
f 148/1/3 146/1/3 147/1/3
f 151/1/3 150/1/3 149/1/3
f 152/1/3 150/1/3 151/1/3
f 155/1/3 154/1/3 153/1/3
f 156/1/3 154/1/3 155/1/3
f 157/1/4 158/1/4 159/1/4
f 159/1/4 158/1/4 160/1/4
f 164/1/5 162/1/5 161/1/5
f 165/1/5 162/1/5 164/1/5
f 168/1/5 164/1/5 163/1/5
f 169/2/5 165/2/5 164/2/5
f 169/1/5 164/1/5 168/1/5
f 170/1/5 166/1/5 165/1/5
f 170/2/5 165/2/5 169/2/5
f 171/1/5 166/1/5 170/1/5
f 174/1/5 168/1/5 167/1/5
f 175/3/5 169/3/5 168/3/5
f 175/1/5 168/1/5 174/1/5
f 176/2/5 170/2/5 169/2/5
f 176/3/5 169/3/5 175/3/5
f 177/3/5 171/3/5 170/3/5
f 177/2/5 170/2/5 176/2/5
f 178/1/5 172/1/5 171/1/5
f 178/3/5 171/3/5 177/3/5
f 179/1/5 172/1/5 178/1/5
f 182/1/5 174/1/5 173/1/5
f 183/3/5 175/3/5 174/3/5
f 183/1/5 174/1/5 182/1/5
f 184/1/5 180/1/5 179/1/5
f 184/3/5 179/3/5 178/3/5
f 185/1/5 180/1/5 184/1/5
f 187/3/5 175/3/5 183/3/5
f 187/3/5 183/3/5 182/3/5
f 188/2/5 177/2/5 176/2/5
f 188/3/5 175/3/5 187/3/5
f 188/2/5 176/2/5 175/2/5
f 188/2/5 178/2/5 177/2/5
f 189/2/5 178/2/5 188/2/5
f 190/2/5 178/2/5 189/2/5
f 191/3/5 184/3/5 178/3/5
f 191/2/5 178/2/5 190/2/5
f 191/3/5 185/3/5 184/3/5
f 192/3/5 185/3/5 191/3/5
f 194/1/5 182/1/5 181/1/5
f 195/3/5 187/3/5 182/3/5
f 195/1/5 182/1/5 194/1/5
f 196/1/5 186/1/5 185/1/5
f 196/3/5 185/3/5 192/3/5
f 197/1/5 186/1/5 196/1/5
f 199/3/5 187/3/5 195/3/5
f 199/3/5 195/3/5 194/3/5
f 200/2/5 188/2/5 187/2/5
f 200/3/5 187/3/5 199/3/5
f 201/3/5 189/3/5 188/3/5
f 201/2/5 188/2/5 200/2/5
f 202/2/5 190/2/5 189/2/5
f 202/3/5 189/3/5 201/3/5
f 203/3/5 191/3/5 190/3/5
f 203/2/5 190/2/5 202/2/5
f 204/2/5 192/2/5 191/2/5
f 204/3/5 191/3/5 203/3/5
f 205/3/5 197/3/5 196/3/5
f 205/2/5 192/2/5 204/2/5
f 205/3/5 196/3/5 192/3/5
f 206/3/5 197/3/5 205/3/5
f 208/1/5 194/1/5 193/1/5
f 209/3/5 199/3/5 194/3/5
f 209/1/5 194/1/5 208/1/5
f 210/1/5 198/1/5 197/1/5
f 210/3/5 197/3/5 206/3/5
f 211/1/5 198/1/5 210/1/5
f 213/3/5 199/3/5 209/3/5
f 213/3/5 209/3/5 208/3/5
f 214/2/5 200/2/5 199/2/5
f 214/3/5 199/3/5 213/3/5
f 215/3/5 201/3/5 200/3/5
f 215/2/5 200/2/5 214/2/5
f 216/3/5 205/3/5 204/3/5
f 216/2/5 206/2/5 205/2/5
f 217/3/5 211/3/5 210/3/5
f 217/2/5 206/2/5 216/2/5
f 217/3/5 210/3/5 206/3/5
f 218/3/5 211/3/5 217/3/5
f 220/1/5 208/1/5 207/1/5
f 221/3/5 213/3/5 208/3/5
f 221/1/5 208/1/5 220/1/5
f 222/1/5 212/1/5 211/1/5
f 222/3/5 211/3/5 218/3/5
f 223/1/5 212/1/5 222/1/5
f 226/1/5 220/1/5 219/1/5
f 227/3/5 221/3/5 220/3/5
f 227/1/5 220/1/5 226/1/5
f 228/3/5 213/3/5 221/3/5
f 228/3/5 221/3/5 227/3/5
f 229/2/5 214/2/5 213/2/5
f 229/3/5 213/3/5 228/3/5
f 230/3/5 215/3/5 214/3/5
f 230/2/5 214/2/5 229/2/5
f 231/3/5 217/3/5 216/3/5
f 231/2/5 218/2/5 217/2/5
f 232/3/5 222/3/5 218/3/5
f 232/2/5 218/2/5 231/2/5
f 232/3/5 223/3/5 222/3/5
f 233/3/5 223/3/5 232/3/5
f 234/1/5 224/1/5 223/1/5
f 234/3/5 223/3/5 233/3/5
f 235/1/5 224/1/5 234/1/5
f 237/3/5 201/3/5 215/3/5
f 237/3/5 215/3/5 230/3/5
f 237/3/5 230/3/5 229/3/5
f 238/2/5 202/2/5 201/2/5
f 238/3/5 201/3/5 237/3/5
f 239/3/5 203/3/5 202/3/5
f 239/2/5 202/2/5 238/2/5
f 240/2/5 204/2/5 203/2/5
f 240/3/5 203/3/5 239/3/5
f 241/3/5 216/3/5 204/3/5
f 241/2/5 204/2/5 240/2/5
f 241/3/5 231/3/5 216/3/5
f 241/3/5 232/3/5 231/3/5
f 242/3/5 232/3/5 241/3/5
f 244/1/5 226/1/5 225/1/5
f 245/3/5 227/3/5 226/3/5
f 245/3/5 228/3/5 227/3/5
f 245/1/5 226/1/5 244/1/5
f 246/3/5 228/3/5 245/3/5
f 247/2/5 229/2/5 228/2/5
f 247/3/5 228/3/5 246/3/5
f 248/3/5 237/3/5 229/3/5
f 248/2/5 229/2/5 247/2/5
f 249/2/5 233/2/5 232/2/5
f 249/3/5 232/3/5 242/3/5
f 250/3/5 235/3/5 234/3/5
f 250/2/5 233/2/5 249/2/5
f 250/3/5 234/3/5 233/3/5
f 251/3/5 235/3/5 250/3/5
f 252/1/5 236/1/5 235/1/5
f 252/3/5 235/3/5 251/3/5
f 253/1/5 236/1/5 252/1/5
f 255/1/5 244/1/5 243/1/5
f 255/3/5 246/3/5 245/3/5
f 255/3/5 245/3/5 244/3/5
f 256/2/5 247/2/5 246/2/5
f 256/3/5 246/3/5 255/3/5
f 257/3/5 248/3/5 247/3/5
f 257/2/5 247/2/5 256/2/5
f 258/3/5 237/3/5 248/3/5
f 258/3/5 248/3/5 257/3/5
f 258/2/5 238/2/5 237/2/5
f 259/3/5 240/3/5 239/3/5
f 259/2/5 238/2/5 258/2/5
f 259/3/5 239/3/5 238/3/5
f 259/3/5 241/3/5 240/3/5
f 260/2/5 242/2/5 241/2/5
f 260/3/5 241/3/5 259/3/5
f 261/3/5 250/3/5 249/3/5
f 261/2/5 242/2/5 260/2/5
f 261/3/5 249/3/5 242/3/5
f 262/2/5 251/2/5 250/2/5
f 262/3/5 250/3/5 261/3/5
f 263/3/5 253/3/5 252/3/5
f 263/2/5 251/2/5 262/2/5
f 263/3/5 252/3/5 251/3/5
f 264/1/5 254/1/5 253/1/5
f 264/3/5 253/3/5 263/3/5
f 265/1/5 263/1/5 262/1/5
f 265/1/5 258/1/5 257/1/5
f 265/1/5 264/1/5 263/1/5
f 265/1/5 259/1/5 258/1/5
f 265/1/5 257/1/5 256/1/5
f 265/1/5 256/1/5 255/1/5
f 265/1/5 262/1/5 261/1/5
f 265/1/5 261/1/5 260/1/5
f 265/1/5 255/1/5 243/1/5
f 265/1/5 260/1/5 259/1/5
f 266/1/5 254/1/5 264/1/5
f 266/1/5 264/1/5 265/1/5
f 267/1/6 268/1/6 270/1/6
f 270/1/6 268/1/6 271/1/6
f 269/1/6 270/1/6 274/1/6
f 270/2/6 271/2/6 275/2/6
f 274/1/6 270/1/6 275/1/6
f 271/1/6 272/1/6 276/1/6
f 275/2/6 271/2/6 276/2/6
f 276/1/6 272/1/6 277/1/6
f 273/1/6 274/1/6 280/1/6
f 274/3/6 275/3/6 281/3/6
f 280/1/6 274/1/6 281/1/6
f 275/2/6 276/2/6 282/2/6
f 281/3/6 275/3/6 282/3/6
f 276/3/6 277/3/6 283/3/6
f 282/2/6 276/2/6 283/2/6
f 277/1/6 278/1/6 284/1/6
f 283/3/6 277/3/6 284/3/6
f 284/1/6 278/1/6 285/1/6
f 279/1/6 280/1/6 288/1/6
f 280/3/6 281/3/6 289/3/6
f 288/1/6 280/1/6 289/1/6
f 285/1/6 286/1/6 290/1/6
f 284/3/6 285/3/6 290/3/6
f 290/1/6 286/1/6 291/1/6
f 289/3/6 281/3/6 293/3/6
f 288/3/6 289/3/6 293/3/6
f 282/2/6 283/2/6 294/2/6
f 293/3/6 281/3/6 294/3/6
f 281/2/6 282/2/6 294/2/6
f 283/2/6 284/2/6 294/2/6
f 294/2/6 284/2/6 295/2/6
f 295/2/6 284/2/6 296/2/6
f 284/3/6 290/3/6 297/3/6
f 296/2/6 284/2/6 297/2/6
f 290/3/6 291/3/6 297/3/6
f 297/3/6 291/3/6 298/3/6
f 287/1/6 288/1/6 300/1/6
f 288/3/6 293/3/6 301/3/6
f 300/1/6 288/1/6 301/1/6
f 291/1/6 292/1/6 302/1/6
f 298/3/6 291/3/6 302/3/6
f 302/1/6 292/1/6 303/1/6
f 301/3/6 293/3/6 305/3/6
f 300/3/6 301/3/6 305/3/6
f 293/2/6 294/2/6 306/2/6
f 305/3/6 293/3/6 306/3/6
f 294/3/6 295/3/6 307/3/6
f 306/2/6 294/2/6 307/2/6
f 295/2/6 296/2/6 308/2/6
f 307/3/6 295/3/6 308/3/6
f 296/3/6 297/3/6 309/3/6
f 308/2/6 296/2/6 309/2/6
f 297/2/6 298/2/6 310/2/6
f 309/3/6 297/3/6 310/3/6
f 302/3/6 303/3/6 311/3/6
f 310/2/6 298/2/6 311/2/6
f 298/3/6 302/3/6 311/3/6
f 311/3/6 303/3/6 312/3/6
f 299/1/6 300/1/6 314/1/6
f 300/3/6 305/3/6 315/3/6
f 314/1/6 300/1/6 315/1/6
f 303/1/6 304/1/6 316/1/6
f 312/3/6 303/3/6 316/3/6
f 316/1/6 304/1/6 317/1/6
f 315/3/6 305/3/6 319/3/6
f 314/3/6 315/3/6 319/3/6
f 305/2/6 306/2/6 320/2/6
f 319/3/6 305/3/6 320/3/6
f 306/3/6 307/3/6 321/3/6
f 320/2/6 306/2/6 321/2/6
f 310/3/6 311/3/6 322/3/6
f 311/2/6 312/2/6 322/2/6
f 316/3/6 317/3/6 323/3/6
f 322/2/6 312/2/6 323/2/6
f 312/3/6 316/3/6 323/3/6
f 323/3/6 317/3/6 324/3/6
f 313/1/6 314/1/6 326/1/6
f 314/3/6 319/3/6 327/3/6
f 326/1/6 314/1/6 327/1/6
f 317/1/6 318/1/6 328/1/6
f 324/3/6 317/3/6 328/3/6
f 328/1/6 318/1/6 329/1/6
f 325/1/6 326/1/6 332/1/6
f 326/3/6 327/3/6 333/3/6
f 332/1/6 326/1/6 333/1/6
f 327/3/6 319/3/6 334/3/6
f 333/3/6 327/3/6 334/3/6
f 319/2/6 320/2/6 335/2/6
f 334/3/6 319/3/6 335/3/6
f 320/3/6 321/3/6 336/3/6
f 335/2/6 320/2/6 336/2/6
f 322/3/6 323/3/6 337/3/6
f 323/2/6 324/2/6 337/2/6
f 324/3/6 328/3/6 338/3/6
f 337/2/6 324/2/6 338/2/6
f 328/3/6 329/3/6 338/3/6
f 338/3/6 329/3/6 339/3/6
f 329/1/6 330/1/6 340/1/6
f 339/3/6 329/3/6 340/3/6
f 340/1/6 330/1/6 341/1/6
f 321/3/6 307/3/6 343/3/6
f 336/3/6 321/3/6 343/3/6
f 335/3/6 336/3/6 343/3/6
f 307/2/6 308/2/6 344/2/6
f 343/3/6 307/3/6 344/3/6
f 308/3/6 309/3/6 345/3/6
f 344/2/6 308/2/6 345/2/6
f 309/2/6 310/2/6 346/2/6
f 345/3/6 309/3/6 346/3/6
f 310/3/6 322/3/6 347/3/6
f 346/2/6 310/2/6 347/2/6
f 322/3/6 337/3/6 347/3/6
f 337/3/6 338/3/6 347/3/6
f 347/3/6 338/3/6 348/3/6
f 331/1/6 332/1/6 350/1/6
f 332/3/6 333/3/6 351/3/6
f 333/3/6 334/3/6 351/3/6
f 350/1/6 332/1/6 351/1/6
f 351/3/6 334/3/6 352/3/6
f 334/2/6 335/2/6 353/2/6
f 352/3/6 334/3/6 353/3/6
f 335/3/6 343/3/6 354/3/6
f 353/2/6 335/2/6 354/2/6
f 338/2/6 339/2/6 355/2/6
f 348/3/6 338/3/6 355/3/6
f 340/3/6 341/3/6 356/3/6
f 355/2/6 339/2/6 356/2/6
f 339/3/6 340/3/6 356/3/6
f 356/3/6 341/3/6 357/3/6
f 341/1/6 342/1/6 358/1/6
f 357/3/6 341/3/6 358/3/6
f 358/1/6 342/1/6 359/1/6
f 349/1/6 350/1/6 361/1/6
f 351/3/6 352/3/6 361/3/6
f 350/3/6 351/3/6 361/3/6
f 352/2/6 353/2/6 362/2/6
f 361/3/6 352/3/6 362/3/6
f 353/3/6 354/3/6 363/3/6
f 362/2/6 353/2/6 363/2/6
f 354/3/6 343/3/6 364/3/6
f 363/3/6 354/3/6 364/3/6
f 343/2/6 344/2/6 364/2/6
f 345/3/6 346/3/6 365/3/6
f 364/2/6 344/2/6 365/2/6
f 344/3/6 345/3/6 365/3/6
f 346/3/6 347/3/6 365/3/6
f 347/2/6 348/2/6 366/2/6
f 365/3/6 347/3/6 366/3/6
f 355/3/6 356/3/6 367/3/6
f 366/2/6 348/2/6 367/2/6
f 348/3/6 355/3/6 367/3/6
f 356/2/6 357/2/6 368/2/6
f 367/3/6 356/3/6 368/3/6
f 358/3/6 359/3/6 369/3/6
f 368/2/6 357/2/6 369/2/6
f 357/3/6 358/3/6 369/3/6
f 359/1/6 360/1/6 370/1/6
f 369/3/6 359/3/6 370/3/6
f 368/1/6 369/1/6 371/1/6
f 363/1/6 364/1/6 371/1/6
f 369/1/6 370/1/6 371/1/6
f 364/1/6 365/1/6 371/1/6
f 362/1/6 363/1/6 371/1/6
f 361/1/6 362/1/6 371/1/6
f 367/1/6 368/1/6 371/1/6
f 366/1/6 367/1/6 371/1/6
f 349/1/6 361/1/6 371/1/6
f 365/1/6 366/1/6 371/1/6
f 370/1/6 360/1/6 372/1/6
f 371/1/6 370/1/6 372/1/6
