# MagicaVoxel @ Ephtracy

# group
o 

# material
mtllib Missile.mtl
usemtl palette

# normals
vn -1 0 0
vn 1 0 0
vn 0 0 1
vn 0 0 -1
vn 0 -1 0
vn 0 1 0

# texcoords
vt 0.955078 0.5
vt 0.958984 0.5
vt 0.986328 0.5
vt 0.994141 0.5

# verts
v -0.3 0 0.3
v -0.3 0 0
v -0.3 0 -0.4
v -0.3 0.1 0.3
v -0.3 0.1 0
v -0.3 0.1 -0.4
v -0.2 0 0.4
v -0.2 0 0.3
v -0.2 0 -0.4
v -0.2 0 -0.5
v -0.2 0.1 0.4
v -0.2 0.1 0.3
v -0.2 0.1 -0.4
v -0.2 0.1 -0.5
v -0.1 0 0.5
v -0.1 0 0.4
v -0.1 0.1 0.5
v -0.1 0.1 0.4
v 0.1 0 0.5
v 0.1 0 0.4
v 0.1 0.1 0.5
v 0.1 0.1 0.4
v 0.2 0 0.4
v 0.2 0 0.3
v 0.2 0 -0.4
v 0.2 0 -0.5
v 0.2 0.1 0.4
v 0.2 0.1 0.3
v 0.2 0.1 -0.4
v 0.2 0.1 -0.5
v 0.3 0 0.3
v 0.3 0 0.2
v 0.3 0 -0.3
v 0.3 0 -0.4
v 0.3 0.1 0.3
v 0.3 0.1 0.2
v 0.3 0.1 -0.3
v 0.3 0.1 -0.4
v -0.1 0 0.5
v -0.1 0.1 0.5
v 0.1 0 0.5
v 0.1 0.1 0.5
v -0.2 0 0.4
v -0.2 0.1 0.4
v -0.1 0 0.4
v -0.1 0.1 0.4
v 0.1 0 0.4
v 0.1 0.1 0.4
v 0.2 0 0.4
v 0.2 0.1 0.4
v -0.3 0 0.3
v -0.3 0.1 0.3
v -0.2 0 0.3
v -0.2 0.1 0.3
v 0.2 0 0.3
v 0.2 0.1 0.3
v 0.3 0 0.3
v 0.3 0.1 0.3
v -0.3 0 -0.4
v -0.3 0.1 -0.4
v -0.2 0 -0.4
v -0.2 0.1 -0.4
v 0.2 0 -0.4
v 0.2 0.1 -0.4
v 0.3 0 -0.4
v 0.3 0.1 -0.4
v -0.2 0 -0.5
v -0.2 0.1 -0.5
v 0.2 0 -0.5
v 0.2 0.1 -0.5
v -0.1 0 0.5
v 0.1 0 0.5
v -0.2 0 0.4
v -0.1 0 0.4
v 0.1 0 0.4
v 0.2 0 0.4
v -0.3 0 0.3
v -0.2 0 0.3
v -0.1 0 0.3
v 0.1 0 0.3
v 0.2 0 0.3
v 0.3 0 0.3
v 0.2 0 0.2
v 0.3 0 0.2
v -0.2 0 0.1
v -0.1 0 0.1
v -0.3 0 0
v -0.2 0 0
v -0.1 0 0
v -0.2 0 -0.1
v -0.1 0 -0.1
v -0.1 0 -0.3
v 0 0 -0.3
v 0.2 0 -0.3
v 0.3 0 -0.3
v -0.3 0 -0.4
v -0.2 0 -0.4
v 0 0 -0.4
v 0.2 0 -0.4
v 0.3 0 -0.4
v -0.2 0 -0.5
v 0.2 0 -0.5
v -0.1 0.1 0.5
v 0.1 0.1 0.5
v -0.2 0.1 0.4
v -0.1 0.1 0.4
v 0.1 0.1 0.4
v 0.2 0.1 0.4
v -0.3 0.1 0.3
v -0.2 0.1 0.3
v -0.1 0.1 0.3
v 0.1 0.1 0.3
v 0.2 0.1 0.3
v 0.3 0.1 0.3
v 0.2 0.1 0.2
v 0.3 0.1 0.2
v -0.2 0.1 0.1
v -0.1 0.1 0.1
v -0.3 0.1 0
v -0.2 0.1 0
v -0.1 0.1 0
v -0.2 0.1 -0.1
v -0.1 0.1 -0.1
v -0.1 0.1 -0.3
v 0 0.1 -0.3
v 0.2 0.1 -0.3
v 0.3 0.1 -0.3
v -0.3 0.1 -0.4
v -0.2 0.1 -0.4
v 0 0.1 -0.4
v 0.2 0.1 -0.4
v 0.3 0.1 -0.4
v -0.2 0.1 -0.5
v 0.2 0.1 -0.5

# faces
f 4/1/1 2/1/1 1/1/1
f 5/4/1 3/4/1 2/4/1
f 5/1/1 2/1/1 4/1/1
f 6/4/1 3/4/1 5/4/1
f 11/1/1 8/1/1 7/1/1
f 12/1/1 8/1/1 11/1/1
f 13/1/1 10/1/1 9/1/1
f 14/1/1 10/1/1 13/1/1
f 17/1/1 16/1/1 15/1/1
f 18/1/1 16/1/1 17/1/1
f 19/1/2 20/1/2 21/1/2
f 21/1/2 20/1/2 22/1/2
f 23/1/2 24/1/2 27/1/2
f 27/1/2 24/1/2 28/1/2
f 25/1/2 26/1/2 29/1/2
f 29/1/2 26/1/2 30/1/2
f 31/1/2 32/1/2 35/1/2
f 32/4/2 33/4/2 36/4/2
f 35/1/2 32/1/2 36/1/2
f 33/1/2 34/1/2 37/1/2
f 36/4/2 33/4/2 37/4/2
f 37/1/2 34/1/2 38/1/2
f 41/1/3 40/1/3 39/1/3
f 42/1/3 40/1/3 41/1/3
f 45/1/3 44/1/3 43/1/3
f 46/1/3 44/1/3 45/1/3
f 49/1/3 48/1/3 47/1/3
f 50/1/3 48/1/3 49/1/3
f 53/1/3 52/1/3 51/1/3
f 54/1/3 52/1/3 53/1/3
f 57/1/3 56/1/3 55/1/3
f 58/1/3 56/1/3 57/1/3
f 59/4/4 60/4/4 61/4/4
f 61/4/4 60/4/4 62/4/4
f 63/1/4 64/1/4 65/1/4
f 65/1/4 64/1/4 66/1/4
f 67/1/4 68/1/4 69/1/4
f 69/1/4 68/1/4 70/1/4
f 74/1/5 72/1/5 71/1/5
f 75/1/5 72/1/5 74/1/5
f 78/1/5 74/1/5 73/1/5
f 79/3/5 75/3/5 74/3/5
f 79/1/5 74/1/5 78/1/5
f 80/1/5 76/1/5 75/1/5
f 80/3/5 75/3/5 79/3/5
f 81/1/5 76/1/5 80/1/5
f 83/3/5 79/3/5 78/3/5
f 83/1/5 82/1/5 81/1/5
f 83/3/5 81/3/5 80/3/5
f 83/3/5 80/3/5 79/3/5
f 84/1/5 82/1/5 83/1/5
f 85/1/5 78/1/5 77/1/5
f 85/3/5 83/3/5 78/3/5
f 86/3/5 83/3/5 85/3/5
f 87/1/5 85/1/5 77/1/5
f 88/2/5 86/2/5 85/2/5
f 88/1/5 85/1/5 87/1/5
f 89/3/5 83/3/5 86/3/5
f 89/2/5 86/2/5 88/2/5
f 90/4/5 88/4/5 87/4/5
f 90/3/5 89/3/5 88/3/5
f 91/3/5 83/3/5 89/3/5
f 91/3/5 89/3/5 90/3/5
f 92/2/5 91/2/5 90/2/5
f 92/3/5 83/3/5 91/3/5
f 93/3/5 83/3/5 92/3/5
f 94/4/5 84/4/5 83/4/5
f 94/3/5 83/3/5 93/3/5
f 95/4/5 84/4/5 94/4/5
f 96/4/5 90/4/5 87/4/5
f 97/2/5 93/2/5 92/2/5
f 97/4/5 90/4/5 96/4/5
f 97/2/5 92/2/5 90/2/5
f 98/3/5 94/3/5 93/3/5
f 98/2/5 93/2/5 97/2/5
f 99/1/5 95/1/5 94/1/5
f 99/3/5 94/3/5 98/3/5
f 100/1/5 95/1/5 99/1/5
f 101/1/5 98/1/5 97/1/5
f 101/1/5 99/1/5 98/1/5
f 102/1/5 99/1/5 101/1/5
f 103/1/6 104/1/6 106/1/6
f 106/1/6 104/1/6 107/1/6
f 105/1/6 106/1/6 110/1/6
f 106/3/6 107/3/6 111/3/6
f 110/1/6 106/1/6 111/1/6
f 107/1/6 108/1/6 112/1/6
f 111/3/6 107/3/6 112/3/6
f 112/1/6 108/1/6 113/1/6
f 110/3/6 111/3/6 115/3/6
f 113/1/6 114/1/6 115/1/6
f 112/3/6 113/3/6 115/3/6
f 111/3/6 112/3/6 115/3/6
f 115/1/6 114/1/6 116/1/6
f 109/1/6 110/1/6 117/1/6
f 110/3/6 115/3/6 117/3/6
f 117/3/6 115/3/6 118/3/6
f 109/1/6 117/1/6 119/1/6
f 117/2/6 118/2/6 120/2/6
f 119/1/6 117/1/6 120/1/6
f 118/3/6 115/3/6 121/3/6
f 120/2/6 118/2/6 121/2/6
f 119/4/6 120/4/6 122/4/6
f 120/3/6 121/3/6 122/3/6
f 121/3/6 115/3/6 123/3/6
f 122/3/6 121/3/6 123/3/6
f 122/2/6 123/2/6 124/2/6
f 123/3/6 115/3/6 124/3/6
f 124/3/6 115/3/6 125/3/6
f 115/4/6 116/4/6 126/4/6
f 125/3/6 115/3/6 126/3/6
f 126/4/6 116/4/6 127/4/6
f 119/4/6 122/4/6 128/4/6
f 124/2/6 125/2/6 129/2/6
f 128/4/6 122/4/6 129/4/6
f 122/2/6 124/2/6 129/2/6
f 125/3/6 126/3/6 130/3/6
f 129/2/6 125/2/6 130/2/6
f 126/1/6 127/1/6 131/1/6
f 130/3/6 126/3/6 131/3/6
f 131/1/6 127/1/6 132/1/6
f 129/1/6 130/1/6 133/1/6
f 130/1/6 131/1/6 133/1/6
f 133/1/6 131/1/6 134/1/6
